<?xml version="1.0" encoding="UTF-8"?>
<svg xmlns="http://www.w3.org/2000/svg" xmlns:xlink="http://www.w3.org/1999/xlink" width="32" height="32" viewBox="0 0 32 32">
<path fill="none" stroke-width="2" stroke-linecap="round" stroke-linejoin="round" stroke="rgb(0%, 0%, 0%)" stroke-opacity="1" stroke-miterlimit="4" d="M 15 12 C 15 13.65625 13.65625 15 12 15 C 10.34375 15 9 13.65625 9 12 C 9 10.34375 10.34375 9 12 9 C 13.65625 9 15 10.34375 15 12 Z M 15 12 "/>
<path fill="none" stroke-width="2" stroke-linecap="round" stroke-linejoin="round" stroke="rgb(0%, 0%, 0%)" stroke-opacity="1" stroke-miterlimit="4" d="M 19.398438 15 C 19.128906 15.617188 19.257812 16.335938 19.730469 16.820312 L 19.789062 16.878906 C 20.164062 17.253906 20.375 17.765625 20.375 18.296875 C 20.375 18.824219 20.164062 19.335938 19.789062 19.710938 C 19.414062 20.085938 18.90625 20.296875 18.375 20.296875 C 17.84375 20.296875 17.335938 20.085938 16.960938 19.710938 L 16.898438 19.648438 C 16.417969 19.179688 15.695312 19.046875 15.078125 19.320312 C 14.476562 19.578125 14.082031 20.171875 14.078125 20.828125 L 14.078125 21 C 14.078125 22.105469 13.183594 23 12.078125 23 C 10.976562 23 10.078125 22.105469 10.078125 21 L 10.078125 20.910156 C 10.0625 20.234375 9.636719 19.632812 9 19.398438 C 8.382812 19.128906 7.664062 19.257812 7.179688 19.730469 L 7.121094 19.789062 C 6.746094 20.164062 6.234375 20.375 5.703125 20.375 C 5.175781 20.375 4.664062 20.164062 4.289062 19.789062 C 3.914062 19.414062 3.703125 18.90625 3.703125 18.375 C 3.703125 17.84375 3.914062 17.335938 4.289062 16.960938 L 4.351562 16.898438 C 4.820312 16.417969 4.953125 15.695312 4.679688 15.078125 C 4.421875 14.476562 3.828125 14.082031 3.171875 14.078125 L 3 14.078125 C 1.894531 14.078125 1 13.183594 1 12.078125 C 1 10.976562 1.894531 10.078125 3 10.078125 L 3.089844 10.078125 C 3.765625 10.0625 4.367188 9.636719 4.601562 9 C 4.871094 8.382812 4.742188 7.664062 4.269531 7.179688 L 4.210938 7.121094 C 3.835938 6.746094 3.625 6.234375 3.625 5.703125 C 3.625 5.175781 3.835938 4.664062 4.210938 4.289062 C 4.585938 3.914062 5.09375 3.703125 5.625 3.703125 C 6.15625 3.703125 6.664062 3.914062 7.039062 4.289062 L 7.101562 4.351562 C 7.582031 4.820312 8.304688 4.953125 8.921875 4.679688 L 9 4.679688 C 9.605469 4.421875 9.996094 3.828125 10 3.171875 L 10 3 C 10 1.894531 10.894531 1 12 1 C 13.105469 1 14 1.894531 14 3 L 14 3.089844 C 14.003906 3.746094 14.394531 4.339844 15 4.601562 C 15.617188 4.871094 16.335938 4.742188 16.820312 4.269531 L 16.878906 4.210938 C 17.253906 3.835938 17.765625 3.625 18.296875 3.625 C 18.824219 3.625 19.335938 3.835938 19.710938 4.210938 C 20.085938 4.585938 20.296875 5.09375 20.296875 5.625 C 20.296875 6.15625 20.085938 6.664062 19.710938 7.039062 L 19.648438 7.101562 C 19.179688 7.582031 19.046875 8.304688 19.320312 8.921875 L 19.320312 9 C 19.578125 9.605469 20.171875 9.996094 20.828125 10 L 21 10 C 22.105469 10 23 10.894531 23 12 C 23 13.105469 22.105469 14 21 14 L 20.910156 14 C 20.253906 14.003906 19.660156 14.394531 19.398438 15 Z M 19.398438 15 "/>
</svg>
